# xmcd
#
# Track frame offsets: 
#        182
#        12772
#        23625
#        48817
#        59880
#        72607
#        88665
#        99247
#        111537
#        124670
#        136750
#        147002
#        160277
#        183920
#
# Disc length: 2606 seconds
#
# Revision: 0
# Processed by: cddbd v1.5.2PL0 Copyright (c) Steve Scherf et al.
# Submitted via: ExactAudioCopy v0.99pb5
#
DISCID=bd0a2c0e
DTITLE=Various Artist - Essential blues
DYEAR=1990
DGENRE=Blues
TTITLE0=Jimmy Reed - Shame, Shame, Shame
TTITLE1=Elmore James - Coming home
TTITLE2=Howlin` Wolf - Little red rooster
TTITLE3=Memphis Slim - Lonesome
TTITLE4=Muddy Waters - 40 days and 40 night
TTITLE5=B B King - It`s my own fault baby
TTITLE6=Eric Clapton - Got to hurry
TTITLE7=Howlin` Wolf - Ain`t superstitious
TTITLE8=Elmore James - Dust my broom
TTITLE9=Jimmy Red - My baby`s so sweet
TTITLE10=Eric Clapton - I wish you would
TTITLE11=Muddy Waters - Rollin` and tumblin`
TTITLE12=B B King - You`ve done lost your good thing now
TTITLE13=Memphis Slim - Let the good times roll creole
EXTD=
EXTT0=
EXTT1=
EXTT2=
EXTT3=
EXTT4=
EXTT5=
EXTT6=
EXTT7=
EXTT8=
EXTT9=
EXTT10=
EXTT11=
EXTT12=
EXTT13=
PLAYORDER=
